<svg width="10088" height="1270" viewBox="0 0 10088 1270" fill="none" xmlns="http://www.w3.org/2000/svg">
<path fill-rule="evenodd" clip-rule="evenodd" d="M438.439 477.762L659.952 256.25L1038.68 634.976L518.347 1155.31L432.121 1069.08L865.296 635.905L809.361 579.969L520.577 868.753L432.493 780.668L719.232 493.929L660.323 435.02L527.193 568.15L438.44 477.761L438.439 477.762Z" fill="#6B00A9"/>
<path fill-rule="evenodd" clip-rule="evenodd" d="M377.986 1016.09L467.543 926.535L317.318 776.31L471.113 622.515L384.515 535.917L230.831 689.601L173.595 632.364L605.098 200.861L519.987 115.75L0 635.737L377.985 1016.09L377.986 1016.09Z" fill="#6B00A9"/>
<path d="M1425.04 952V529.849C1425.04 513.626 1425.74 500.93 1427.16 491.76C1429.27 482.591 1434.21 475.89 1441.97 471.658C1449.73 467.426 1463.13 465.31 1482.17 465.31H1972.04V556.3H1599.61V657.87H1938.18V747.802H1599.61V952H1425.04ZM2058.41 952C2058.41 880.054 2058.41 808.109 2058.41 736.163C2058.41 664.218 2058.41 592.272 2058.41 520.327C2058.41 508.336 2059.11 498.461 2060.52 490.702C2062.64 482.238 2067.58 475.89 2075.33 471.658C2083.8 467.426 2097.2 465.31 2115.54 465.31H2231.92V952H2058.41ZM2529.49 465.31V861.01H2841.61V952H2355.97V522.443C2355.97 509.747 2356.68 499.166 2358.09 490.702C2360.21 482.238 2365.14 475.89 2372.9 471.658C2380.66 467.426 2394.06 465.31 2413.11 465.31H2529.49ZM3087.43 465.31V861.01H3399.55V952H2913.92V522.443C2913.92 509.747 2914.62 499.166 2916.03 490.702C2918.15 482.238 2923.09 475.89 2930.84 471.658C2938.6 467.426 2952.01 465.31 2971.05 465.31H3087.43ZM3471.86 952C3471.86 880.054 3471.86 808.109 3471.86 736.163C3471.86 664.218 3471.86 592.272 3471.86 520.327C3471.86 508.336 3472.56 498.461 3473.97 490.702C3476.09 482.238 3481.03 475.89 3488.79 471.658C3497.25 467.426 3510.65 465.31 3528.99 465.31H3645.37V952H3471.86ZM3765.19 952C3765.19 883.581 3764.84 815.162 3764.14 746.744C3764.14 678.325 3764.14 609.906 3764.14 541.487C3764.14 514.684 3768.72 495.287 3777.89 483.296C3787.06 471.305 3805.75 465.31 3833.97 465.31C3870.64 465.31 3908.38 465.31 3947.17 465.31C3986.67 464.604 4025.82 464.604 4064.61 465.31C4103.41 465.31 4140.79 465.31 4176.77 465.31C4209.21 466.015 4237.78 471.305 4262.47 481.18C4287.86 490.35 4307.96 506.22 4322.77 528.791C4337.58 551.362 4344.99 582.045 4344.99 620.839C4344.99 663.16 4337.94 697.369 4323.83 723.467C4310.43 748.86 4291.38 767.199 4266.7 778.484C4242.01 789.065 4213.44 794.355 4181 794.355C4138.68 793.649 4094.94 793.297 4049.8 793.297C4004.66 793.297 3961.28 793.297 3919.67 793.297C3919.67 767.199 3919.67 748.154 3919.67 736.163C3919.67 723.467 3921.43 715.356 3924.96 711.829C3928.48 707.597 3934.83 705.481 3944 705.481C3958.81 705.481 3975.39 705.481 3993.73 705.481C4012.07 705.481 4031.11 705.481 4050.86 705.481C4070.61 705.481 4089.3 705.481 4106.94 705.481C4119.63 705.481 4130.56 703.012 4139.73 698.075C4148.9 692.432 4155.96 683.615 4160.89 671.624C4166.54 659.633 4169.36 644.115 4169.36 625.071C4169.36 602.5 4165.13 585.924 4156.66 575.344C4148.9 564.058 4135.85 557.71 4117.52 556.3C4098.47 555.594 4079.78 555.242 4061.44 555.242C4043.81 555.242 4026.17 555.242 4008.54 555.242C3990.91 555.242 3974.33 555.594 3958.81 556.3C3954.58 556.3 3950 558.063 3945.06 561.59C3940.12 565.116 3937.65 569.701 3937.65 575.344C3937.65 638.12 3937.65 700.896 3937.65 763.672C3937.65 825.743 3937.65 888.519 3937.65 952H3765.19ZM4434.82 952V520.327C4434.82 497.756 4438.7 482.943 4446.46 475.89C4454.22 468.836 4469.39 465.31 4491.96 465.31H4980.76V556.3H4608.34V657.87H4946.91V747.802H4608.34V861.01H4980.76V952H4434.82ZM5374.02 952V519.269C5374.02 495.287 5378.26 480.475 5386.72 474.832C5395.19 468.484 5412.82 465.31 5439.62 465.31H5571.88L5695.66 741.454L5697.78 752.034L5699.9 750.976L5702.01 740.396L5821.57 465.31H5962.29C5987.68 465.31 6003.9 468.836 6010.95 475.89C6018.71 482.943 6022.59 497.403 6022.59 519.269V898.041C6022.59 915.675 6020.83 928.371 6017.3 936.13C6013.78 943.183 6007.43 947.768 5998.26 949.884C5989.09 951.295 5975.69 952 5958.05 952H5849.08V651.522L5841.67 681.146L5724.23 952H5619.49L5503.1 684.32L5496.76 654.696V952H5374.02ZM6086.62 952L6254.84 547.835C6266.13 520.327 6282.35 499.166 6303.51 484.354C6324.67 468.836 6357.83 461.078 6402.97 461.078C6440.35 461.078 6470.68 468.131 6493.96 482.238C6517.23 496.345 6534.87 518.211 6546.86 547.835L6716.14 952H6527.81L6482.32 843.024H6262.25L6219.93 952H6086.62ZM6289.76 776.368H6450.58L6393.45 628.245C6391.33 622.602 6388.86 617.665 6386.04 613.433C6383.22 608.495 6378.28 606.027 6371.23 606.027C6363.47 606.027 6357.83 608.495 6354.3 613.433C6351.48 617.665 6349.01 622.602 6346.89 628.245L6289.76 776.368ZM7096.37 788.007C7096.37 788.007 7089.32 788.007 7075.21 788.007C7061.81 788.007 7044.53 788.359 7023.37 789.065C7002.21 789.065 6980.34 789.065 6957.77 789.065V952H6784.25V529.849C6784.25 509.394 6788.84 493.524 6798.01 482.238C6807.18 470.952 6825.87 465.31 6854.08 465.31C6864.66 465.31 6880.53 465.31 6901.69 465.31C6922.85 464.604 6947.19 464.252 6974.7 464.252C7002.21 464.252 7030.42 464.252 7059.34 464.252C7088.96 463.546 7117.18 463.546 7143.98 464.252C7170.78 464.252 7194.06 464.604 7213.81 465.31C7234.27 465.31 7249.08 465.662 7258.25 466.368C7296.34 469.894 7324.9 481.533 7343.95 501.282C7362.99 520.327 7372.51 551.715 7372.51 595.446C7372.51 634.946 7369.34 663.865 7362.99 682.204C7357.35 699.838 7347.83 713.592 7334.42 723.467C7329.49 726.994 7322.79 729.815 7314.32 731.931C7305.86 734.047 7296.34 735.105 7285.76 735.105V739.338C7290.69 739.338 7295.98 739.338 7301.63 739.338C7307.97 739.338 7313.26 739.69 7317.5 740.396C7344.3 745.333 7360.17 755.561 7365.11 771.078C7370.75 786.596 7373.57 802.819 7373.57 819.747V912.853C7373.57 926.255 7374.98 936.13 7377.8 942.478C7380.62 948.121 7382.39 951.295 7383.09 952H7254.01C7235.68 952 7221.22 949.179 7210.64 943.536C7200.76 937.893 7195.82 925.902 7195.82 907.563V837.734C7195.82 815.868 7190.89 802.113 7181.01 796.471C7171.84 790.828 7155.27 788.007 7131.28 788.007H7096.37ZM6957.77 705.481C6965.53 705.481 6977.17 705.833 6992.68 706.539C7008.91 706.539 7026.54 706.539 7045.58 706.539C7064.63 706.539 7081.91 706.539 7097.43 706.539C7113.65 706.539 7125.29 706.539 7132.34 706.539C7149.27 706.539 7164.08 701.249 7176.78 690.668C7190.18 679.383 7196.88 658.575 7196.88 628.245C7196.88 607.085 7193 590.509 7185.24 578.518C7178.19 566.527 7166.2 559.826 7149.27 558.416C7139.4 556.3 7125.99 555.242 7109.07 555.242C7092.84 555.242 7075.56 555.242 7057.22 555.242C7039.59 555.242 7023.37 555.594 7008.55 556.3C6993.74 556.3 6982.81 556.3 6975.75 556.3C6974.34 556.3 6970.82 557.358 6965.17 559.474C6960.24 561.59 6957.77 566.88 6957.77 575.344V705.481ZM7766.41 959.406C7709.98 959.406 7662.02 955.527 7622.52 947.768C7583.02 940.009 7550.58 926.96 7525.18 908.621C7500.5 889.577 7482.16 863.831 7470.17 831.385C7458.88 798.939 7453.24 758.029 7453.24 708.655C7453.24 657.87 7459.23 616.607 7471.22 584.866C7483.21 552.42 7501.91 527.028 7527.3 508.689C7553.4 489.644 7586.2 476.243 7625.69 468.484C7665.9 460.725 7713.86 456.846 7769.59 456.846C7825.31 456.846 7872.92 460.725 7912.42 468.484C7951.92 476.243 7984.01 489.644 8008.7 508.689C8034.09 527.028 8052.43 552.42 8063.72 584.866C8075.71 617.312 8081.7 658.575 8081.7 708.655C8081.7 758.735 8075.71 799.997 8063.72 832.443C8051.73 864.889 8033.03 890.635 8007.64 909.679C7982.25 928.018 7949.45 941.067 7909.24 948.826C7869.75 955.879 7822.13 959.406 7766.41 959.406ZM7767.47 869.474C7790.75 869.474 7810.85 867.358 7827.78 863.126C7845.41 858.189 7859.52 849.725 7870.1 837.734C7881.38 825.743 7889.5 809.52 7894.43 789.065C7900.08 767.904 7902.9 741.101 7902.9 708.655C7902.9 675.503 7900.08 648.7 7894.43 628.245C7889.5 607.085 7881.38 590.862 7870.1 579.576C7859.52 567.585 7845.41 559.474 7827.78 555.242C7810.85 550.304 7790.75 547.835 7767.47 547.835C7743.49 547.835 7722.68 550.304 7705.05 555.242C7688.12 559.474 7674.36 567.585 7663.78 579.576C7653.2 590.862 7645.09 607.085 7639.45 628.245C7633.81 648.7 7630.98 675.503 7630.98 708.655C7630.98 741.101 7633.81 767.904 7639.45 789.065C7645.09 809.52 7653.2 825.743 7663.78 837.734C7674.36 849.725 7688.12 858.189 7705.05 863.126C7722.68 867.358 7743.49 869.474 7767.47 869.474ZM8001.29 1045.11C7987.19 1045.11 7972.73 1041.58 7957.91 1034.53C7943.81 1028.18 7928.64 1017.24 7912.42 1001.73C7904.66 993.968 7895.14 983.388 7883.85 969.986C7873.27 957.29 7861.28 943.183 7847.88 927.665C7835.18 912.148 7821.78 896.63 7807.67 881.113C7794.27 864.889 7780.87 850.077 7767.47 836.676C7754.07 823.274 7741.72 811.988 7730.44 802.819C7733.97 792.239 7739.61 784.832 7747.37 780.6C7755.83 775.663 7764.3 773.194 7772.76 773.194C7784.75 773.194 7795.33 775.31 7804.5 779.542C7814.38 783.069 7826.37 790.828 7840.47 802.819C7855.29 814.81 7870.1 827.859 7884.91 841.966C7899.72 856.073 7914.18 870.532 7928.29 885.345C7943.1 900.157 7957.91 914.617 7972.73 928.724C7987.54 942.125 8003.06 954.821 8019.28 966.812C8035.5 979.509 8052.78 990.441 8071.12 999.611C8063.36 1015.83 8053.49 1027.47 8041.5 1034.53C8030.21 1041.58 8016.81 1045.11 8001.29 1045.11ZM8746.38 710.771C8746.38 752.386 8743.91 788.712 8738.97 819.747C8734.74 850.077 8723.46 875.47 8705.12 895.925C8686.78 915.675 8657.86 930.487 8618.36 940.362C8578.86 949.531 8524.2 954.116 8454.37 954.116C8397.23 954.116 8350.33 950.942 8313.65 944.594C8277.68 938.246 8249.46 928.724 8229.01 916.027C8209.26 903.331 8194.8 887.813 8185.63 869.474C8176.46 851.135 8170.82 829.622 8168.7 804.935C8167.29 780.248 8166.58 752.739 8166.58 722.409V543.603C8166.58 521.738 8167.29 505.162 8168.7 493.876C8170.11 482.591 8175.4 475.185 8184.57 471.658C8193.74 467.426 8209.26 465.31 8231.12 465.31H8340.1V756.266C8340.1 785.89 8343.98 808.109 8351.74 822.921C8359.5 837.734 8371.84 847.608 8388.77 852.546C8405.7 856.778 8427.56 858.894 8454.37 858.894C8497.39 858.894 8527.72 851.488 8545.36 836.676C8562.99 821.863 8571.81 795.413 8571.81 757.324V465.31H8679.72C8702.3 465.31 8718.17 467.426 8727.34 471.658C8736.51 475.185 8741.8 482.591 8743.21 493.876C8745.32 505.162 8746.38 521.738 8746.38 543.603V710.771ZM8858.06 952V520.327C8858.06 497.756 8861.94 482.943 8869.7 475.89C8877.46 468.836 8892.62 465.31 8915.19 465.31H9404V556.3H9031.58V657.87H9370.14V747.802H9031.58V861.01H9404V952H8858.06ZM9478.56 836.676C9496.19 844.434 9518.76 850.43 9546.27 854.662C9573.78 858.189 9602.34 860.305 9631.97 861.01C9661.59 861.715 9687.69 862.068 9710.26 862.068C9718.73 862.068 9729.31 862.068 9742 862.068C9755.41 862.068 9766.34 861.715 9774.8 861.01C9793.85 861.01 9810.07 859.247 9823.47 855.72C9836.87 851.488 9846.75 845.14 9853.1 836.676C9860.15 828.211 9863.68 816.22 9863.68 800.703C9863.68 782.364 9858.39 770.373 9847.81 764.73C9837.23 758.382 9821 755.208 9799.14 755.208C9791.38 755.208 9782.21 755.208 9771.63 755.208C9761.75 755.208 9749.06 755.208 9733.54 755.208C9718.02 755.208 9697.92 755.208 9673.23 755.208C9650.66 755.208 9627.74 754.15 9604.46 752.034C9581.89 749.918 9561.43 744.98 9543.1 737.221C9524.76 728.757 9509.94 715.708 9498.66 698.075C9488.08 679.736 9482.79 654.696 9482.79 622.955C9482.79 584.866 9489.14 555.242 9501.83 534.081C9515.23 512.215 9533.57 495.992 9556.85 485.412C9580.83 474.832 9609.05 468.131 9641.49 465.31C9674.64 462.488 9710.97 461.078 9750.47 461.078C9774.45 461.078 9800.2 461.43 9827.7 462.136C9855.92 462.841 9882.02 463.899 9906 465.31C9930.68 466.72 9949.73 469.189 9963.13 472.716C9987.11 474.127 10005.5 480.475 10018.1 491.76C10031.5 503.046 10038.3 517.153 10038.3 534.081C10038.3 536.903 10038.3 541.84 10038.3 548.893C10038.3 555.242 10038.3 561.59 10038.3 567.938C10038.3 574.286 10038.3 577.813 10038.3 578.518C10032.6 573.581 10022 569.701 10006.5 566.88C9991.7 563.353 9974.06 560.884 9953.61 559.474C9933.86 558.063 9914.11 557.005 9894.36 556.3C9875.31 555.594 9858.39 555.242 9843.57 555.242H9748.35C9729.31 555.242 9713.08 557.005 9699.68 560.532C9686.99 563.353 9677.46 568.643 9671.12 576.402C9664.77 584.161 9661.59 595.094 9661.59 609.201C9661.59 620.486 9663.71 629.656 9667.94 636.709C9672.17 643.057 9678.88 647.642 9688.04 650.464C9697.21 653.285 9709.21 654.696 9724.02 654.696C9767.04 654.696 9801.61 654.696 9827.7 654.696C9853.8 654.696 9870.73 654.696 9878.49 654.696C9912.35 654.696 9941.97 657.517 9967.36 663.16C9992.76 668.803 10012.5 681.499 10026.6 701.249C10040.7 720.998 10047.8 751.328 10047.8 792.239C10047.8 831.033 10040 862.068 10024.5 885.345C10009 907.916 9987.47 924.491 9959.96 935.072C9933.15 945.652 9901.77 952 9865.79 954.116C9831.94 956.232 9799.84 957.29 9769.51 957.29C9739.18 957.29 9707.09 957.29 9673.23 957.29C9645.02 956.585 9618.92 955.174 9594.94 953.058C9571.66 951.647 9551.21 948.826 9533.57 944.594C9515.94 939.656 9502.19 933.308 9492.31 925.549C9483.14 917.085 9478.56 906.152 9478.56 892.751V836.676Z" fill="#F4F4F4"/>
</svg>
