<svg width="3280" height="951" viewBox="0 0 3280 951" fill="none" xmlns="http://www.w3.org/2000/svg">
<path fill-rule="evenodd" clip-rule="evenodd" d="M400.886 331.006L603.427 128.466L949.716 474.755L473.951 950.521L395.109 871.679L791.184 475.605L740.039 424.46L475.989 688.51L395.449 607.97L657.63 345.789L603.767 291.925L482.039 413.653L400.887 331.005L400.886 331.006Z" fill="white"/>
<path fill-rule="evenodd" clip-rule="evenodd" d="M345.613 823.23L427.499 741.344L290.141 603.985L430.764 463.362L351.583 384.181L211.061 524.702L158.727 472.368L553.273 77.8219L475.451 0L0 475.451L345.612 823.23L345.613 823.23Z" fill="white"/>
<path d="M1229.89 414.332V210.709C1229.89 202.884 1230.23 196.76 1230.91 192.337C1231.93 187.914 1234.31 184.682 1238.05 182.64C1241.8 180.599 1248.26 179.578 1257.45 179.578H1493.73V223.467H1314.09V272.459H1477.4V315.838H1314.09V414.332H1229.89ZM1535.39 414.332C1535.39 379.629 1535.39 344.927 1535.39 310.224C1535.39 275.521 1535.39 240.818 1535.39 206.116C1535.39 200.332 1535.73 195.569 1536.41 191.826C1537.43 187.744 1539.81 184.682 1543.56 182.64C1547.64 180.599 1554.1 179.578 1562.95 179.578H1619.09V414.332H1535.39ZM1762.62 179.578V370.443H1913.17V414.332H1678.92V207.136C1678.92 201.012 1679.26 195.909 1679.94 191.826C1680.96 187.744 1683.35 184.682 1687.09 182.64C1690.83 180.599 1697.29 179.578 1706.48 179.578H1762.62ZM2031.74 179.578V370.443H2182.29V414.332H1948.04V207.136C1948.04 201.012 1948.38 195.909 1949.06 191.826C1950.09 187.744 1952.47 184.682 1956.21 182.64C1959.95 180.599 1966.42 179.578 1975.6 179.578H2031.74ZM2217.17 414.332C2217.17 379.629 2217.17 344.927 2217.17 310.224C2217.17 275.521 2217.17 240.818 2217.17 206.116C2217.17 200.332 2217.51 195.569 2218.19 191.826C2219.21 187.744 2221.59 184.682 2225.33 182.64C2229.41 180.599 2235.88 179.578 2244.72 179.578H2300.86V414.332H2217.17ZM2358.66 414.332C2358.66 381.33 2358.49 348.329 2358.15 315.327C2358.15 282.326 2358.15 249.324 2358.15 216.322C2358.15 203.394 2360.36 194.038 2364.78 188.254C2369.2 182.47 2378.22 179.578 2391.83 179.578C2409.52 179.578 2427.72 179.578 2446.43 179.578C2465.49 179.238 2484.37 179.238 2503.08 179.578C2521.79 179.578 2539.82 179.578 2557.18 179.578C2572.83 179.919 2586.6 182.47 2598.51 187.233C2610.76 191.656 2620.46 199.311 2627.6 210.198C2634.75 221.086 2638.32 235.885 2638.32 254.597C2638.32 275.011 2634.92 291.512 2628.11 304.1C2621.65 316.348 2612.46 325.194 2600.55 330.637C2588.65 335.741 2574.87 338.292 2559.22 338.292C2538.8 337.952 2517.71 337.782 2495.94 337.782C2474.16 337.782 2453.24 337.782 2433.16 337.782C2433.16 325.194 2433.16 316.008 2433.16 310.224C2433.16 304.1 2434.02 300.187 2435.72 298.486C2437.42 296.445 2440.48 295.424 2444.9 295.424C2452.05 295.424 2460.04 295.424 2468.89 295.424C2477.73 295.424 2486.92 295.424 2496.45 295.424C2505.97 295.424 2514.99 295.424 2523.49 295.424C2529.62 295.424 2534.89 294.233 2539.31 291.852C2543.74 289.13 2547.14 284.877 2549.52 279.093C2552.24 273.31 2553.6 265.825 2553.6 256.639C2553.6 245.752 2551.56 237.756 2547.48 232.653C2543.74 227.21 2537.44 224.148 2528.6 223.467C2519.41 223.127 2510.4 222.957 2501.55 222.957C2493.04 222.957 2484.54 222.957 2476.03 222.957C2467.53 222.957 2459.53 223.127 2452.05 223.467C2450.01 223.467 2447.79 224.318 2445.41 226.019C2443.03 227.72 2441.84 229.931 2441.84 232.653C2441.84 262.933 2441.84 293.213 2441.84 323.493C2441.84 353.432 2441.84 383.712 2441.84 414.332H2358.66ZM2681.65 414.332V206.116C2681.65 195.229 2683.52 188.084 2687.26 184.682C2691.01 181.279 2698.32 179.578 2709.21 179.578H2944.98V223.467H2765.34V272.459H2928.65V315.838H2765.34V370.443H2944.98V414.332H2681.65ZM1242.65 843.332V628.481C1242.65 619.295 1243.5 613.682 1245.2 611.64C1247.24 609.599 1252 608.578 1259.49 608.578H1287.56L1371.76 795.871L1372.78 799.443L1373.8 797.912L1374.82 794.34L1459.03 608.578H1488.63C1495.77 608.578 1500.37 609.429 1502.41 611.13C1504.79 612.491 1505.98 616.744 1505.98 623.888V827.512C1505.98 832.275 1505.47 835.677 1504.45 837.718C1503.77 839.76 1502.24 841.291 1499.86 842.311C1497.81 842.992 1494.58 843.332 1490.16 843.332H1466.17V651.446L1464.13 658.591L1380.95 843.332H1354.41L1272.76 662.163L1271.23 655.019V843.332H1242.65ZM1556.83 843.332L1624.7 642.771C1628.79 631.203 1634.4 622.357 1641.54 616.233C1648.69 609.769 1660.94 606.537 1678.29 606.537C1693.94 606.537 1705.51 609.429 1712.99 615.213C1720.48 620.996 1726.43 630.182 1730.85 642.771L1800.26 843.332H1757.9L1735.96 778.52H1608.37L1587.45 843.332H1556.83ZM1615.01 760.658H1728.81L1695.13 658.081C1693.43 652.977 1691.22 648.555 1688.5 644.812C1685.77 640.729 1680.33 638.688 1672.16 638.688C1662.98 638.688 1656.85 640.729 1653.79 644.812C1651.07 648.895 1649.03 653.318 1647.67 658.081L1615.01 760.658ZM1995.04 746.879C1995.04 746.879 1990.28 746.879 1980.75 746.879C1971.22 746.879 1958.46 746.879 1942.47 746.879C1926.48 746.879 1908.79 747.049 1889.4 747.389V843.332H1850.1V635.116C1850.1 625.249 1852.15 618.445 1856.23 614.702C1860.65 610.96 1867.8 608.919 1877.66 608.578C1882.77 608.238 1889.4 608.068 1897.56 608.068C1906.07 608.068 1915.43 608.068 1925.63 608.068C1935.84 607.728 1946.22 607.558 1956.76 607.558C1967.65 607.558 1978.03 607.558 1987.89 607.558C1998.1 607.558 2007.12 607.728 2014.94 608.068C2022.77 608.408 2028.89 608.748 2033.31 609.089C2051.01 610.79 2063.93 616.744 2072.1 626.95C2080.26 636.817 2084.35 651.617 2084.35 671.349C2084.35 687 2082.14 699.418 2077.71 708.604C2073.63 717.79 2067.34 724.594 2058.83 729.017C2057.81 730.038 2056.11 730.888 2053.73 731.569C2051.69 731.909 2049.47 732.079 2047.09 732.079V733.1C2048.45 733.1 2049.98 733.1 2051.69 733.1C2053.39 733.1 2054.75 733.1 2055.77 733.1C2068.7 735.481 2076.52 740.755 2079.24 748.92C2081.97 756.745 2083.33 764.741 2083.33 772.906V831.084C2083.33 834.486 2083.67 837.378 2084.35 839.76C2085.03 841.801 2085.54 842.992 2085.88 843.332H2058.32C2053.56 843.332 2049.81 842.481 2047.09 840.78C2044.37 839.079 2043.01 834.997 2043.01 828.532V774.437C2043.01 763.89 2040.63 756.745 2035.87 753.003C2031.44 748.92 2023.45 746.879 2011.88 746.879H1995.04ZM1889.4 725.445C1894.16 725.445 1901.65 725.615 1911.85 725.955C1922.06 725.955 1933.12 725.955 1945.03 725.955C1957.27 725.955 1968.5 725.955 1978.71 725.955C1988.91 725.955 1996.4 725.955 2001.16 725.955C2012.39 725.955 2022.26 722.553 2030.76 715.749C2039.61 708.604 2044.03 695.505 2044.03 676.453C2044.03 663.524 2041.48 653.318 2036.38 645.833C2031.61 638.008 2023.79 633.415 2012.9 632.054C2005.76 631.033 1996.91 630.523 1986.36 630.523C1975.82 630.182 1964.93 630.182 1953.7 630.523C1942.47 630.523 1932.1 630.693 1922.57 631.033C1913.04 631.033 1905.9 631.033 1901.14 631.033C1900.12 631.033 1897.91 631.713 1894.5 633.074C1891.1 634.095 1889.4 637.497 1889.4 643.281V725.445ZM2265.86 846.904C2245.45 846.904 2227.42 845.373 2211.77 842.311C2196.12 839.249 2182.68 833.636 2171.45 825.47C2160.56 816.965 2152.23 804.717 2146.44 788.726C2140.66 772.736 2137.77 751.642 2137.77 725.445C2137.77 698.907 2140.83 677.644 2146.95 661.653C2153.42 645.322 2162.43 633.074 2174 624.909C2185.57 616.744 2199.35 611.3 2215.34 608.578C2231.67 605.857 2249.87 604.496 2269.95 604.496C2290.02 604.496 2307.88 606.027 2323.53 609.089C2339.18 611.81 2352.45 617.424 2363.34 625.93C2374.56 634.095 2383.07 646.173 2388.85 662.163C2394.64 678.154 2397.53 699.248 2397.53 725.445C2397.53 752.322 2394.3 773.756 2387.83 789.747C2381.71 805.737 2372.86 817.985 2361.3 826.491C2350.07 834.656 2336.29 840.1 2319.96 842.822C2303.97 845.543 2285.94 846.904 2265.86 846.904ZM2267.39 824.96C2281.68 824.96 2294.44 823.769 2305.67 821.388C2316.9 818.666 2326.25 813.903 2333.74 807.098C2341.56 800.294 2347.35 790.427 2351.09 777.499C2355.17 764.23 2357.21 746.879 2357.21 725.445C2357.21 704.351 2355.17 687.34 2351.09 674.411C2347.35 661.143 2341.56 651.106 2333.74 644.302C2326.25 637.157 2316.9 632.394 2305.67 630.012C2294.44 627.631 2281.68 626.44 2267.39 626.44C2252.76 626.44 2239.84 627.631 2228.61 630.012C2217.72 632.394 2208.54 637.157 2201.05 644.302C2193.57 651.106 2187.78 661.143 2183.7 674.411C2179.96 687.34 2178.09 704.351 2178.09 725.445C2178.09 746.879 2179.96 764.23 2183.7 777.499C2187.78 790.427 2193.57 800.294 2201.05 807.098C2208.54 813.903 2217.72 818.666 2228.61 821.388C2239.84 823.769 2252.76 824.96 2267.39 824.96ZM2365.38 884.159C2361.64 884.159 2357.72 882.968 2353.64 880.586C2349.56 878.545 2345.3 875.313 2340.88 870.89C2337.82 867.828 2333.4 862.895 2327.61 856.09C2321.83 849.286 2315.37 841.801 2308.22 833.636C2301.42 825.13 2294.44 816.795 2287.3 808.629C2280.15 800.124 2273.52 792.639 2267.39 786.175C2261.61 779.37 2257.19 774.437 2254.12 771.375C2255.49 768.653 2257.19 766.782 2259.23 765.761C2261.27 764.741 2263.48 764.23 2265.86 764.23C2269.26 764.23 2272.33 765.081 2275.05 766.782C2278.11 768.483 2281.51 771.375 2285.26 775.458C2288.66 778.52 2293.25 783.283 2299.03 789.747C2305.16 796.211 2311.79 803.526 2318.94 811.691C2326.08 819.857 2333.4 828.022 2340.88 836.187C2348.71 844.353 2356.19 851.838 2363.34 858.642C2370.82 865.447 2377.29 870.55 2382.73 873.952C2380.69 877.354 2378.31 879.906 2375.58 881.607C2372.86 883.308 2369.46 884.159 2365.38 884.159ZM2683.63 742.796C2683.63 757.426 2682.95 771.035 2681.59 783.623C2680.22 795.871 2675.97 806.588 2668.83 815.774C2662.02 824.96 2650.8 832.105 2635.15 837.208C2619.84 842.311 2598.06 844.863 2569.82 844.863C2547.37 844.863 2529 843.332 2514.71 840.27C2500.76 836.868 2489.87 832.105 2482.04 825.981C2474.56 819.857 2469.12 812.712 2465.71 804.547C2462.31 796.381 2460.1 787.365 2459.08 777.499C2458.4 767.292 2458.06 756.745 2458.06 745.858V628.992C2458.06 623.548 2458.23 619.295 2458.57 616.233C2458.91 613.171 2460.27 611.13 2462.65 610.109C2465.03 609.089 2468.61 608.578 2473.37 608.578H2497.35V763.21C2497.35 778.52 2499.74 790.427 2504.5 798.933C2509.6 807.098 2517.43 812.882 2527.97 816.284C2538.86 819.687 2552.81 821.388 2569.82 821.388C2596.36 821.388 2615.41 816.965 2626.98 808.119C2638.89 798.933 2644.84 783.963 2644.84 763.21V608.578H2667.81C2672.91 608.578 2676.65 609.089 2679.03 610.109C2681.42 611.13 2682.78 613.171 2683.12 616.233C2683.46 619.295 2683.63 623.548 2683.63 628.992V742.796ZM2763.18 843.332V624.909C2763.18 618.785 2764.03 614.532 2765.73 612.151C2767.44 609.769 2771.18 608.578 2776.96 608.578H2979.56V631.033H2802.48V709.114H2964.77V731.569H2802.48V820.877H2979.56V843.332H2763.18ZM3025.46 807.609C3032.6 812.372 3041.79 815.944 3053.01 818.326C3064.58 820.367 3076.49 821.728 3088.74 822.408C3101.32 822.749 3112.21 822.919 3121.4 822.919C3124.8 822.919 3128.71 822.919 3133.14 822.919C3137.56 822.919 3141.47 822.749 3144.87 822.408C3158.48 822.068 3170.39 820.537 3180.6 817.815C3190.8 814.753 3198.8 809.82 3204.58 803.016C3210.37 795.871 3213.26 785.834 3213.26 772.906C3213.26 757.256 3209.18 747.049 3201.01 742.286C3192.84 737.523 3180.94 735.141 3165.29 735.141C3160.18 735.141 3154.74 735.141 3148.96 735.141C3143.17 735.141 3137.05 735.141 3130.58 735.141C3124.12 735.141 3116.63 735.141 3108.13 735.141C3098.6 735.141 3088.91 734.801 3079.04 734.121C3069.17 733.1 3060.16 730.888 3051.99 727.486C3043.83 723.744 3037.36 718.13 3032.6 710.645C3027.84 702.82 3025.46 691.763 3025.46 677.473C3025.46 660.803 3028.35 647.704 3034.13 638.178C3040.25 628.651 3048.76 621.677 3059.65 617.254C3070.53 612.831 3082.95 609.939 3096.9 608.578C3111.19 607.217 3126.33 606.537 3142.32 606.537C3151.85 606.537 3162.56 606.707 3174.47 607.047C3186.72 607.388 3198.12 608.238 3208.67 609.599C3219.55 610.96 3228.06 613.341 3234.18 616.744C3239.63 617.424 3243.71 619.125 3246.43 621.847C3249.49 624.569 3251.02 627.971 3251.02 632.054C3251.02 633.415 3251.02 635.116 3251.02 637.157C3251.02 638.858 3251.02 640.559 3251.02 642.26C3251.02 643.962 3251.02 645.152 3251.02 645.833C3247.96 642.431 3242.86 639.709 3235.71 637.667C3228.57 635.626 3220.4 634.095 3211.22 633.074C3202.37 631.713 3193.7 630.863 3185.19 630.523C3176.68 629.842 3169.71 629.502 3164.27 629.502H3134.16C3121.91 629.502 3110.51 630.523 3099.96 632.564C3089.42 634.605 3080.91 638.858 3074.45 645.322C3068.32 651.446 3065.26 661.313 3065.26 674.922C3065.26 685.469 3067.3 693.294 3071.39 698.397C3075.81 703.5 3081.93 706.903 3089.76 708.604C3097.58 709.965 3106.94 710.645 3117.83 710.645C3131.09 710.645 3142.83 710.645 3153.04 710.645C3163.25 710.645 3171.58 710.645 3178.04 710.645C3193.01 710.645 3206.28 712.006 3217.85 714.728C3229.42 717.109 3238.43 722.723 3244.9 731.569C3251.36 740.074 3254.6 753.513 3254.6 771.885C3254.6 789.917 3250.51 804.206 3242.35 814.753C3234.52 825.3 3223.63 832.785 3209.69 837.208C3196.08 841.631 3180.43 844.353 3162.73 845.373C3154.23 845.714 3146.06 845.884 3138.24 845.884C3130.41 846.224 3122.25 846.224 3113.74 845.884C3105.92 845.884 3096.9 845.543 3086.7 844.863C3076.49 844.183 3066.62 843.162 3057.1 841.801C3047.91 840.1 3040.25 837.718 3034.13 834.656C3028.35 831.254 3025.46 826.831 3025.46 821.388V807.609Z" fill="white"/>
</svg>
